<svg xmlns="http://www.w3.org/2000/svg" xmlns:xlink="http://www.w3.org/1999/xlink" version="1.1" id="Your_Icon" x="0px" y="0px" width="100px" height="100px" viewBox="0 0 100 100" enable-background="new 0 0 100 100" xml:space="preserve">
<g>
	<path fill="#000000" d="M49.914,8.286c-23.024,0-41.754,18.731-41.754,41.754c0,23.023,18.731,41.754,41.754,41.754   c23.022,0,41.753-18.731,41.753-41.754C91.666,27.017,72.936,8.286,49.914,8.286z M70.574,80.13l-1.787-3.051l-4.518,2.647   l1.791,3.058c-4.131,2.045-8.701,3.327-13.528,3.671v-8.783h-5.236v8.783c-4.57-0.326-8.909-1.491-12.864-3.35l1.816-3.249   l-4.571-2.555l-1.812,3.241c-3.948-2.603-7.362-5.949-10.043-9.841l3.203-1.876l-2.645-4.518l-3.211,1.88   c-2.045-4.131-3.327-8.701-3.671-13.528h8.784v-5.236h-8.784c0.326-4.57,1.491-8.909,3.35-12.864l3.248,1.815l2.555-4.571   l-3.24-1.81c0.876-1.329,1.839-2.595,2.876-3.795L44.911,48.75c-0.107,0.415-0.182,0.842-0.182,1.29   c0,0.486,0.089,0.947,0.214,1.393L32.111,64.787l3.775,3.629l12.826-13.347c0.387,0.093,0.786,0.154,1.201,0.154   c2.858,0,5.183-2.325,5.183-5.183s-2.325-5.183-5.183-5.183c-0.453,0-0.885,0.077-1.304,0.186L25.985,22.489   c1.04-0.905,2.129-1.755,3.268-2.539l1.878,3.204l4.516-2.647l-1.881-3.21c4.131-2.046,8.702-3.327,13.53-3.671v8.784h5.236v-8.784   c4.569,0.326,8.908,1.491,12.862,3.35l-1.73,3.096l4.571,2.553l1.725-3.087c3.948,2.603,7.362,5.949,10.042,9.841l-3.05,1.787   l2.647,4.518l3.057-1.791c2.046,4.131,3.327,8.702,3.671,13.53h-8.782v5.236h8.782c-0.326,4.57-1.491,8.909-3.35,12.863   l-3.094-1.729l-2.553,4.571l3.085,1.724C77.811,74.035,74.465,77.45,70.574,80.13z"/>
	<path fill="#000000" d="M49.914,0.129C22.391,0.129,0,22.519,0,50.041c0,27.521,22.391,49.91,49.913,49.91   c27.522,0,49.911-22.39,49.911-49.91C99.825,22.519,77.435,0.129,49.914,0.129z M49.914,94.716   c-24.635,0-44.677-20.041-44.677-44.675c0-24.634,20.042-44.676,44.677-44.676c24.634,0,44.676,20.041,44.676,44.676   C94.589,74.674,74.548,94.716,49.914,94.716z"/>
</g>
</svg>